# AST/ASF file generated using VICON BodyLanguage
# -----------------------------------------------
:version 1.10
:name VICON
:units
  mass 1.0
  length 0.45
  angle deg
:documentation
   .ast/.asf automatically generated from VICON data using
   VICON BodyBuilder and BodyLanguage model FoxedUp or BRILLIANT.MOD
:root
   order TX TY TZ RX RY RZ
   axis XYZ
   position 0 0 0  
   orientation 0 0 0 
:bonedata
  begin
     id 1 
     name lhipjoint
     direction 0.623529 -0.717805 0.309788 
     length 2.23224 
     axis 0 0 0  XYZ
  end
  begin
     id 2 
     name lfemur
     direction 0.34202 -0.939693 0  
     length 7.11402  
     axis 0 0 20  XYZ
    dof rx ry rz
    limits (-160.0 20.0)
           (-70.0 70.0)
           (-60.0 70.0)
  end
  begin
     id 3 
     name ltibia
     direction 0.34202 -0.939693 0   
     length 6.78496   
     axis 0 0 20   XYZ
    dof rx
    limits (-10.0 170.0)
  end
  begin
     id 4 
     name lfoot
     direction 0.125078 -0.343648 0.930732   
     length 1.84054   
     axis -90 7.62852e-016 20   XYZ
    dof rx rz
    limits (-45.0 90.0)
           (-70.0 20.0)
  end
  begin
     id 5 
     name ltoes
     direction 1.53565e-011 -4.21893e-011 1   
     length 0.916474   
     axis -90 7.62852e-016 20   XYZ
    dof rx
    limits (-90.0 20.0)
  end
  begin
     id 6 
     name rhipjoint
     direction -0.564688 -0.757748 0.327026   
     length 2.11457  
     axis 0 0 0  XYZ 
  end
  begin
     id 7 
     name rfemur
     direction -0.34202 -0.939693 0   
     length 7.14609   
     axis 0 0 -20   XYZ
    dof rx ry rz
    limits (-160.0 20.0)
           (-70.0 70.0)
           (-70.0 60.0)
  end
  begin
     id 8 
     name rtibia
     direction -0.34202 -0.939693 0   
     length 6.78101   
     axis 0 0 -20   XYZ
    dof rx
    limits (-10.0 170.0)
 end
 begin
     id 9 
     name rfoot
     direction -0.0992671 -0.272734 0.956955   
     length 1.96168  
     axis -90 -7.62852e-016 -20   XYZ
    dof rx rz
    limits (-45.0 90.0)
           (-20.0 70.0)
  end
  begin
     id 10 
     name rtoes
     direction -1.5356e-011 -4.21891e-011 1   
     length 0.982933   
     axis -90 -7.62852e-016 -20   XYZ
    dof rx
    limits (-90.0 20.0)
  end
  begin
     id 11 
     name lowerback
     direction -0.00596953 0.998668 0.0512524   
     length 1.87557   
     axis 0 0 0   XYZ
    dof rx ry rz
    limits (-20.0 45.0)
           (-30.0 30.0)
           (-30.0 30.0)
  end
  begin
     id 12 
     name upperback
     direction 0.00584879 0.999652 0.0257308   
     length 1.87883   
     axis 0 0 0   XYZ
    dof rx ry rz
    limits (-20.0 45.0)
           (-30.0 30.0)
           (-30.0 30.0)
  end
  begin
     id 13 
     name thorax
     direction 0.010104 0.999947 0.00178881   
     length 1.87779   
     axis 0 0 0   XYZ
    dof rx ry rz
    limits (-20.0 45.0)
           (-30.0 30.0)
           (-30.0 30.0)
  end
  begin
     id 14 
     name lowerneck
     direction 0.0120771 0.995934 -0.0892773   
     length 1.40897   
     axis 0 0 0   XYZ
    dof rx ry rz
    limits (-20.0 45.0)
           (-30.0 30.0)
           (-30.0 30.0)
  end
  begin
     id 15 
     name upperneck
     direction -0.030568 0.999465 -0.0116366   
     length 1.38661   
     axis 0 0 0   XYZ
    dof rx ry rz
    limits (-20.0 45.0)
           (-30.0 30.0)
           (-30.0 30.0)
  end
  begin
     id 16
     name head
     direction -0.0170715 0.999854 -0.00104426  
     length 1.47052  
     axis 0 0 0   XYZ
    dof rx ry rz
    limits (-20.0 45.0)
           (-30.0 30.0)
           (-30.0 30.0)
  end
  begin
     id 17 
     name lclavicle
     direction 0.977763 0.206143 0.038532  
     length 3.02424  
     axis 0 0 0   XYZ
    dof ry rz
    limits (-20.0 10.0)
           (0.0 20.0)
  end
  begin
     id 18 
     name lhumerus
     direction 1 -4.48965e-011 -2.62654e-027   
     length 4.68382   
     axis 180 -30 -90   XYZ
    dof rx ry rz
    limits (-60.0 90.0)
           (-90.0 90.0)
           (-90.0 90.0)
  end
  begin
     id 19
     name lradius
     direction 1 -4.48973e-011 -1.54954e-027   
     length 2.98124   
     axis 180 -30 -90   XYZ
    dof rx
    limits (-10.0 170.0)
  end
  begin
     id 20
     name lwrist
     direction 1 -4.48959e-011 7.20928e-028   
     length 1.49062   
     axis -5.52449e-016 90 90   XYZ
    dof ry
    limits (-180.0 0.0)
 end
  begin
     id 21 
     name lhand
     direction 1 -4.48971e-011 1.44186e-027   
     length 0.707595   
     axis -9.20027e-016 90 90   XYZ
    dof rx rz
    limits (-90.0 90.0)
           (-45.0 45.0)
  end
  begin
     id 22 
     name lfingers
     direction 1 -4.48985e-011 2.88371e-027   
     length 0.570481   
     axis -1.84005e-015 90 90   XYZ
    dof rx
    limits (0.0 90.0)
  end
  begin
     id 23
     name lthumb
     direction 0.707107 -6.34929e-011 0.707107   
     length 0.819101   
     axis -90 45 2.85299e-015   XYZ
    dof rx rz
    limits (-45.0 45.0)
           (-45.0 45.0)
  end
  begin
     id 24 
     name rclavicle
     direction -0.958661 0.284411 -0.00895327   
     length 3.11921  
     axis 0 0 0   XYZ 
    dof ry rz
    limits (-10.0 20.0)
           (-20.0 0.0)
  end
  begin
     id 25 
     name rhumerus
     direction -1 -4.48963e-011 -4.22193e-027  
     length 4.75876   
     axis 180 30 90   XYZ
    dof rx ry rz
    limits (-90.0 60.0)
           (-90.0 90.0)
           (-90.0 90.0)
  end
  begin
     id 26 
     name rradius
     direction -1 -4.48968e-011 -1.07616e-027   
     length 2.93293   
     axis 180 30 90   XYZ
    dof rx
    limits (-10.0 170.0)
  end
  begin
     id 27 
     name rwrist
     direction -1 -4.48965e-011 7.20928e-028   
     length 1.46647   
     axis -5.52449e-016 -90 -90   XYZ
    dof ry
    limits (-180.0 0.0)
  end
  begin
     id 28
     name rhand
     direction -1 -4.48971e-011 1.44186e-027   
     length 0.831748   
     axis -9.20027e-016 -90 -90   XYZ
    dof rx rz
    limits (-90.0 90.0)
           (-45.0 45.0)
  end
  begin
     id 29
     name rfingers
     direction -1 -4.48961e-011 2.88371e-027   
     length 0.670577   
     axis -1.84005e-015 -90 -90   XYZ
    dof rx
    limits (0.0 90.0)
  end
  begin
     id 30
     name rthumb
     direction -0.707107 -6.34929e-011 0.707107   
     length 0.962818   
     axis -90 -45 -2.85299e-015   XYZ
    dof rx rz
    limits (-45.0 45.0)
           (-45.0 45.0)
  end
:hierarchy
  begin
    root lhipjoint rhipjoint lowerback
    lhipjoint lfemur
    lfemur ltibia
    ltibia lfoot
    lfoot ltoes
    rhipjoint rfemur
    rfemur rtibia
    rtibia rfoot
    rfoot rtoes
    lowerback upperback
    upperback thorax
    thorax lowerneck lclavicle rclavicle
    lowerneck upperneck
    upperneck head
    lclavicle lhumerus
    lhumerus lradius
    lradius lwrist
    lwrist lhand lthumb
    lhand lfingers
    rclavicle rhumerus
    rhumerus rradius
    rradius rwrist
    rwrist rhand rthumb
    rhand rfingers
  end

#!OML:ASF E:\id_vita\Project 1\Capture day 1\Session 1\Female.ASF
:FULLY-SPECIFIED
:DEGREES
980
root 5.81774 27.5012 1.52925 706.628 101.392 685.403
lowerback -13.5255 -0.508651 -7.01937
upperback -3.07305 0.604532 -1.97084
thorax 4.29213 0.321873 1.99507
lowerneck 6.22836 -2.75475 -5.75343
upperneck -11.7186 -2.96161 10.4244
head -4.24625 -1.74423 4.32328
rclavicle 7.21837e-015 1.70458e-014
rhumerus -23.7141 17.8486 -51.5269
rradius 115.43
rwrist -2.88108
rhand -22.2446 17.9044
rfingers 7.12502
rthumb 4.17259 -12.0344
lclavicle 7.21837e-015 1.70458e-014
lhumerus 30.8094 -17.1605 52.6232
lradius 75.8224
lwrist -7.25259
lhand -17.4881 18.6603
lfingers 7.12502
lthumb 8.76433 48.4584
rfemur -27.9505 18.5037 13.6004
rtibia 19.2518
rfoot 0.00504063 -32.7312
rtoes 4.15346
lfemur -39.6213 -15.1275 -15.311
ltibia 40.0526
lfoot -8.21004 -5.40599
ltoes -13.1774
981
root 5.81367 27.5003 1.52792 706.787 101.283 685.549
lowerback -13.5961 -0.509309 -6.94767
upperback -3.14637 0.600922 -1.9863
thorax 4.25466 0.325313 1.93842
lowerneck 5.77925 -2.6996 -5.45688
upperneck -10.9109 -2.93189 10.1798
head -3.93987 -1.71346 4.16838
rclavicle 1.68408e-014 -1.34677e-014
rhumerus -24.119 18.1483 -52.1532
rradius 115.149
rwrist -2.36962
rhand -23.3942 19.5496
rfingers 7.12502
rthumb 3.0624 -10.4082
lclavicle 1.68408e-014 -1.34677e-014
lhumerus 29.9009 -17.2776 52.65
lradius 76.4573
lwrist -7.57514
lhand -18.0673 18.9704
lfingers 7.12502
lthumb 8.2054 48.791
rfemur -27.9428 18.1184 13.8074
rtibia 19.155
rfoot 0.438599 -32.1835
rtoes 3.02521
lfemur -39.6968 -14.9787 -15.2834
ltibia 40.1334
lfoot -8.1838 -5.46241
ltoes -13.6203
982
root 5.81227 27.5006 1.52874 707.011 101.199 685.833
lowerback -13.6213 -0.509736 -6.89542
upperback -3.17796 0.594585 -1.98206
thorax 4.23612 0.324418 1.91267
lowerneck 5.71908 -2.68224 -5.30288
upperneck -10.6408 -2.92243 10.0907
head -3.85401 -1.70749 4.10763
rclavicle -4.51614e-014 -1.39149e-015
rhumerus -24.2287 18.424 -52.6653
rradius 115.445
rwrist -3.32939
rhand -21.9668 17.4636
rfingers 7.12502
rthumb 4.44078 -12.4698
lclavicle -4.51614e-014 -1.39149e-015
lhumerus 29.1393 -17.2755 52.8908
lradius 77.1588
lwrist -7.17731
lhand -17.3257 18.7078
lfingers 7.12502
lthumb 8.92105 48.4992
rfemur -27.8306 18.0789 13.9508
rtibia 19.0415
rfoot 0.67698 -31.9985
rtoes 2.87909
lfemur -39.6792 -14.761 -15.2946
ltibia 40.224
lfoot -8.13152 -5.54554
ltoes -13.8317
983
root 5.81085 27.501 1.53112 707.305 101.132 686.308
lowerback -13.487 -0.472633 -6.8634
upperback -3.21356 0.623405 -1.96409
thorax 4.12279 0.342797 1.91753
lowerneck 5.76247 -2.72732 -5.37457
upperneck -10.4569 -2.99204 10.235
head -3.79649 -1.74637 4.16413
rclavicle -5.20567e-015 2.44505e-014
rhumerus -24.3316 18.8229 -53.1411
rradius 115.32
rwrist -3.51335
rhand -23.2268 16.2778
rfingers 7.12502
rthumb 3.22411 -13.6776
lclavicle -5.20567e-015 2.44505e-014
lhumerus 28.2905 -17.3948 53.2095
lradius 77.6917
lwrist -7.5079
lhand -17.2311 18.5874
lfingers 7.12502
lthumb 9.01236 48.3749
rfemur -27.6089 18.4903 14.0146
rtibia 18.9582
rfoot 0.522538 -32.3163
rtoes 3.95276
lfemur -39.5167 -14.5996 -15.2762
ltibia 40.3109
lfoot -8.08906 -5.56791
ltoes -13.5908
984
root 5.80828 27.5009 1.53164 707.223 101.097 686.386
lowerback -13.3713 -0.420823 -6.90197
upperback -3.2492 0.686134 -1.97656
thorax 4.01636 0.377829 1.93547
lowerneck 5.74937 -2.78951 -5.37724
upperneck -10.2553 -3.08508 10.3064
head -3.72485 -1.79406 4.18574
rclavicle -2.54693e-015 9.29318e-015
rhumerus -25.3774 18.6555 -53.8399
rradius 115.18
rwrist -3.25811
rhand -24.4017 16.7222
rfingers 7.12502
rthumb 2.08938 -13.2473
lclavicle -2.54693e-015 9.29318e-015
lhumerus 27.4243 -17.6419 53.5415
lradius 78.2407
lwrist -8.24149
lhand -17.5214 18.9029
lfingers 7.12502
lthumb 8.73219 48.7023
rfemur -27.4193 18.5107 14.1126
rtibia 18.9199
rfoot 0.626974 -32.3066
rtoes 3.81422
lfemur -39.3648 -14.5557 -15.3019
ltibia 40.3778
lfoot -8.05182 -5.56912
ltoes -13.3773
985
root 5.80606 27.5 1.53027 706.96 101.099 686.206
lowerback -13.4483 -0.430948 -6.93868
upperback -3.19117 0.686233 -1.97549
thorax 4.11919 0.372388 1.95789
lowerneck 5.68053 -2.81599 -5.48521
upperneck -10.2632 -3.12157 10.3729
head -3.70914 -1.80939 4.22441
rclavicle 2.29161e-014 -4.67144e-015
rhumerus -25.375 18.6918 -54.2655
rradius 114.986
rwrist -3.28189
rhand -24.5527 16.9322
rfingers 7.12502
rthumb 1.94356 -13.0387
lclavicle 2.29161e-014 -4.67144e-015
lhumerus 26.649 -17.6314 53.8573
lradius 78.8211
lwrist -8.62397
lhand -17.6133 19.048
lfingers 7.12502
lthumb 8.64352 48.8511
rfemur -27.3253 18.3831 14.1503
rtibia 18.9162
rfoot 0.697021 -32.1689
rtoes 3.24248
lfemur -39.3053 -14.5469 -15.3667
ltibia 40.4315
lfoot -8.03412 -5.59201
ltoes -13.06
986
root 5.80417 27.4994 1.52887 706.765 101.094 686.053
lowerback -13.4548 -0.496904 -6.93113
upperback -3.19864 0.59813 -1.96929
thorax 4.12221 0.329158 1.94558
lowerneck 5.78063 -2.75371 -5.6241
upperneck -10.3712 -3.03759 10.4573
head -3.7611 -1.77034 4.27502
rclavicle 5.44173e-015 -6.5102e-015
rhumerus -25.1115 18.9093 -54.786
rradius 114.727
rwrist -3.11114
rhand -24.147 17.1972
rfingers 7.12502
rthumb 2.33537 -12.7698
lclavicle 5.44173e-015 -6.5102e-015
lhumerus 25.7764 -17.3524 54.1938
lradius 79.4693
lwrist -8.4019
lhand -17.0431 18.4522
lfingers 7.12502
lthumb 9.1938 48.2317
rfemur -27.3134 18.3332 14.1483
rtibia 18.9775
rfoot 0.603408 -32.0733
rtoes 2.87626
lfemur -39.2987 -14.5377 -15.4085
ltibia 40.4899
lfoot -8.03123 -5.62242
ltoes -12.7818
